<?xml version="1.0" encoding="UTF-8"?>
<svg version="1.1" xmlns="http://www.w3.org/2000/svg" width="234" height="234">
<path d="M0 0 C77.22 0 154.44 0 234 0 C234 77.22 234 154.44 234 234 C156.78 234 79.56 234 0 234 C0 156.78 0 79.56 0 0 Z " fill="#A7D7E9" transform="translate(0,0)"/>
<path d="M0 0 C0.7684021 -0.00133942 1.5368042 -0.00267883 2.32849121 -0.00405884 C13.13941842 0.00000542 23.80792561 0.42594935 34.5625 1.5625 C35.70227295 1.68012695 36.8420459 1.79775391 38.01635742 1.91894531 C46.7851933 2.95941715 52.71125563 4.48916165 58.8125 11.25 C59.988125 12.2709375 59.988125 12.2709375 61.1875 13.3125 C61.72375 13.951875 62.26 14.59125 62.8125 15.25 C62.4140625 17.37109375 62.4140625 17.37109375 61.8125 19.25 C60.47929321 19.27777514 59.14590287 19.29673341 57.8125 19.3125 C57.07 19.32410156 56.3275 19.33570312 55.5625 19.34765625 C52.8125 19.25 52.8125 19.25 49.4140625 18.75 C43.76456551 18.03039564 38.12389172 18.1260928 32.4375 18.15234375 C30.6898938 18.15446617 30.6898938 18.15446617 28.90698242 18.15663147 C25.2087948 18.16220084 21.51066913 18.17474769 17.8125 18.1875 C15.29557379 18.19251896 12.77864663 18.19708117 10.26171875 18.20117188 C4.11195826 18.21216024 -2.03776644 18.22886772 -8.1875 18.25 C-8.1875 18.91 -8.1875 19.57 -8.1875 20.25 C-7.64351562 20.36859375 -7.09953125 20.4871875 -6.5390625 20.609375 C3.94925264 23.46665687 13.86946335 29.04135191 23.3125 34.3125 C26.77515755 36.23132852 30.15948437 37.82688864 33.875 39.1875 C42.10617431 42.36238152 51.48840644 48.2886725 55.8125 56.25 C55.4825 57.9 55.1525 59.55 54.8125 61.25 C37.6525 61.25 20.4925 61.25 2.8125 61.25 C3.65090819 63.48960392 3.65090819 63.48960392 6.1484375 64.14453125 C7.15132812 64.44746094 8.15421875 64.75039062 9.1875 65.0625 C14.3783653 66.71693456 19.22734745 68.70543222 24.1484375 71.03125 C26.75365143 72.22307807 29.38048496 73.24525721 32.0625 74.25 C40.59565122 77.63080476 45.75128659 82.65817989 50.8125 90.25 C50.8125 91.57 50.8125 92.89 50.8125 94.25 C47.66658875 95.32623279 45.49885434 95.50396205 42.36328125 94.34375 C38.74355369 92.56905547 35.51071969 90.84097679 32.421875 88.2265625 C29.41369039 85.94790769 26.70836072 84.97217665 23.125 83.8125 C17.87813497 82.02889416 13.05753474 79.98346465 8.1484375 77.43359375 C-0.84442895 72.87700757 -10.57318357 70.16053748 -20.1875 67.25 C-20.1875 66.59 -20.1875 65.93 -20.1875 65.25 C-20.8165625 65.23582031 -21.445625 65.22164063 -22.09375 65.20703125 C-30.10912855 64.76039118 -34.97291127 62.38422401 -40.6875 56.8125 C-42.500822 53.71474159 -42.58905779 51.78370851 -42.1875 48.25 C-40.08668011 46.14918011 -35.77197983 46.56803632 -32.8671875 46.27734375 C-32.01633575 46.18997452 -31.16548401 46.10260529 -30.28884888 46.0125885 C-28.47486374 45.82793746 -26.66063409 45.6456757 -24.84619141 45.46557617 C-22.12175194 45.19341896 -19.39882817 44.90875581 -16.67578125 44.62304688 C-6.46826597 43.5821005 3.54942956 42.97557057 13.8125 43.25 C13.8125 42.59 13.8125 41.93 13.8125 41.25 C12.905 41.023125 11.9975 40.79625 11.0625 40.5625 C6.54612391 39.27210683 2.28853424 37.4334799 -2.02734375 35.59375 C-4.03230488 34.74120781 -6.04467893 33.90573275 -8.06640625 33.09375 C-36.19865832 21.76429882 -36.19865832 21.76429882 -40.1875 13.25 C-39.8700943 10.34493092 -39.34205132 9.41485474 -37.3125 7.25 C-25.86072139 -0.07913831 -13.13176439 0.01342966 0 0 Z " fill="#1C74BC" transform="translate(106.1875,36.75)"/>
<path d="M0 0 C6.10595284 0.90825025 10.58451884 4.10237304 15.75 7.3125 C16.72066406 7.89451172 17.69132812 8.47652344 18.69140625 9.07617188 C19.61308594 9.64529297 20.53476563 10.21441406 21.484375 10.80078125 C22.32709961 11.31809814 23.16982422 11.83541504 24.03808594 12.3684082 C26.28027103 14.23308254 26.73237936 15.13400683 27 18 C26.45703125 20.69921875 26.45703125 20.69921875 25 23 C22.13671875 23.64453125 22.13671875 23.64453125 18.6875 23.8125 C14.14826288 24.24167355 14.14826288 24.24167355 10.3125 26.40234375 C9.0114508 28.53913636 8.01683306 30.71298154 7 33 C5.72987034 35.34905701 4.44480107 37.67940629 3.125 40 C2.78259277 40.607229 2.44018555 41.21445801 2.08740234 41.84008789 C-1.65997628 48.3631391 -5.95760818 54.78062088 -13 58 C-13.66 58 -14.32 58 -15 58 C-15.74283894 46.48599647 -10.94606216 38.53498971 -5 29 C-0.39667425 22.0349075 -0.39667425 22.0349075 0 14 C-0.70125 12.989375 -1.4025 11.97875 -2.125 10.9375 C-2.74375 9.968125 -3.3625 8.99875 -4 8 C-3.2386133 4.72603721 -1.87290357 2.80935535 0 0 Z " fill="#1B73BB" transform="translate(110,143)"/>
<path d="M0 0 C1.65 0.33 3.3 0.66 5 1 C5.33 1.99 5.66 2.98 6 4 C7.1446875 4.185625 7.1446875 4.185625 8.3125 4.375 C11 5 11 5 14 7 C14 7.99 14 8.98 14 10 C14.33 9.67 14.66 9.34 15 9 C18.72224599 8.70613847 19.77786243 8.85190829 23 11 C23.33 11.99 23.66 12.98 24 14 C26.01508358 14.73323796 26.01508358 14.73323796 28 15 C27.34206835 16.67013418 26.67276716 18.3357865 26 20 C25.77054688 20.61230469 25.54109375 21.22460938 25.3046875 21.85546875 C24.61927936 23.60506322 23.81418609 25.30649294 23 27 C20 28 20 28 17 27 C17 26.34 17 25.68 17 25 C16.35546875 24.93425781 15.7109375 24.86851562 15.046875 24.80078125 C10.68205212 23.65361626 7.11934029 21.46799651 3.25 19.1875 C2.47011719 18.74857422 1.69023438 18.30964844 0.88671875 17.85742188 C0.14550781 17.42365234 -0.59570312 16.98988281 -1.359375 16.54296875 C-2.03452148 16.15133545 -2.70966797 15.75970215 -3.40527344 15.35620117 C-5.40170006 13.65838276 -5.74631398 12.58444601 -6 10 C-4.78515625 7.421875 -4.78515625 7.421875 -3.0625 4.75 C-2.49660156 3.85796875 -1.93070312 2.9659375 -1.34765625 2.046875 C-0.90292969 1.37140625 -0.45820312 0.6959375 0 0 Z " fill="#1D77BE" transform="translate(122,122)"/>
<path d="M0 0 C4.4726227 0.57900744 7.87399106 2.41428378 11.6875 4.6875 C12.29674316 5.04328125 12.90598633 5.3990625 13.53369141 5.765625 C15.3607174 6.83566489 17.18124 7.91598084 19 9 C20.03511719 9.61488281 21.07023437 10.22976562 22.13671875 10.86328125 C24.42969349 12.23383249 26.71773531 13.61170996 29 15 C28.67 16.32 28.34 17.64 28 19 C22.70504082 18.48005411 18.65460692 15.73227975 14.1875 13.0625 C13.39923828 12.60681641 12.61097656 12.15113281 11.79882812 11.68164062 C11.05439453 11.24142578 10.30996094 10.80121094 9.54296875 10.34765625 C8.86258545 9.94554932 8.18220215 9.54344238 7.48120117 9.12915039 C6.99240479 8.75653076 6.5036084 8.38391113 6 8 C6 7.34 6 6.68 6 6 C4.35 5.67 2.7 5.34 1 5 C0.67 3.35 0.34 1.7 0 0 Z " fill="#1F85C8" transform="translate(113,137)"/>
<path d="M0 0 C0.598125 0.474375 1.19625 0.94875 1.8125 1.4375 C4.00382924 3.16465744 4.00382924 3.16465744 7 4 C7 4.66 7 5.32 7 6 C7.67804688 6.2475 8.35609375 6.495 9.0546875 6.75 C12.57000431 8.24191164 15.82935295 10.08505561 19.125 12 C19.74503906 12.35578125 20.36507812 12.7115625 21.00390625 13.078125 C23.72728058 14.64772569 26.38363692 16.25575794 29 18 C28.34 18 27.68 18 27 18 C26.34 19.32 25.68 20.64 25 22 C24.76063721 21.40074707 24.52127441 20.80149414 24.2746582 20.18408203 C22.72096085 17.52187622 21.24982603 16.61372022 18.60546875 15.0546875 C17.73212891 14.53519531 16.85878906 14.01570312 15.95898438 13.48046875 C15.04439453 12.95066406 14.12980469 12.42085937 13.1875 11.875 C12.28451172 11.33746094 11.38152344 10.79992187 10.45117188 10.24609375 C6.37050288 7.84146735 2.43914499 5.67951674 -2 4 C-1.34 2.68 -0.68 1.36 0 0 Z " fill="#6EB8DE" transform="translate(112,139)"/>
<path d="M0 0 C0.66 1.32 1.32 2.64 2 4 C3.98 4 5.96 4 8 4 C5.78564172 8.42871657 3.27698964 10.54300595 -1 13 C-1.66 13 -2.32 13 -3 13 C-3.4726477 4.80743982 -3.4726477 4.80743982 -1.5 1.4375 C-0.7575 0.7259375 -0.7575 0.7259375 0 0 Z " fill="#314E9A" transform="translate(98,188)"/>
<path d="M0 0 C0.65742187 0.56332031 1.31484375 1.12664062 1.9921875 1.70703125 C5.53558867 4.40829942 9.23257445 6.5356764 13.125 8.6875 C13.84042969 9.09033203 14.55585938 9.49316406 15.29296875 9.90820312 C18.19851178 11.52933321 20.83147159 12.94382386 24 14 C24 14.66 24 15.32 24 16 C25.65 16.33 27.3 16.66 29 17 C28.01 17.66 27.02 18.32 26 19 C19.77667512 15.64702497 13.58845492 12.23378325 7.4375 8.75 C6.83019043 8.40904297 6.22288086 8.06808594 5.59716797 7.71679688 C3.1138365 6.30337031 1.03082979 5.03082979 -1 3 C-0.67 2.01 -0.34 1.02 0 0 Z " fill="#83BDDD" transform="translate(115,133)"/>
<path d="M0 0 C4.05281712 1.22527029 7.44360764 2.69880494 11 5 C10.67 6.32 10.34 7.64 10 9 C6.05372236 8.43624605 3.20519925 7.40389944 0 5 C-0.875 2.875 -0.875 2.875 -1 1 C-0.67 0.67 -0.34 0.34 0 0 Z " fill="#3059A3" transform="translate(131,147)"/>
<path d="M0 0 C4.23429756 1.31061591 8.07407404 2.94356259 12 5 C11.01 5.495 11.01 5.495 10 6 C8.86649466 8.01669827 8.86649466 8.01669827 8 10 C7.6596875 9.1028125 7.6596875 9.1028125 7.3125 8.1875 C5.66348536 5.43914226 3.72640732 4.60788124 1 3 C0.67 2.01 0.34 1.02 0 0 Z " fill="#60B9E2" transform="translate(129,151)"/>
<path d="M0 0 C2.64 0.99 5.28 1.98 8 3 C8 3.66 8 4.32 8 5 C9.65 5.33 11.3 5.66 13 6 C12.01 6.66 11.02 7.32 10 8 C6.37 6.02 2.74 4.04 -1 2 C-0.67 1.34 -0.34 0.68 0 0 Z " fill="#72B2D8" transform="translate(131,144)"/>
<path d="M0 0 C4.75 0.75 4.75 0.75 7 3 C5.68 3.99 4.36 4.98 3 6 C2.01 5.34 1.02 4.68 0 4 C0 2.68 0 1.36 0 0 Z " fill="#12A6E5" transform="translate(113,137)"/>
<path d="M0 0 C1.98 0.495 1.98 0.495 4 1 C3.67 2.32 3.34 3.64 3 5 C1.68 4.67 0.36 4.34 -1 4 C-0.67 2.68 -0.34 1.36 0 0 Z " fill="#96C4DF" transform="translate(100,188)"/>
<path d="M0 0 C2.43929746 1.92576115 4.80090595 3.80090595 7 6 C6.01 6.495 6.01 6.495 5 7 C2.96855359 6.06553465 0.96466413 5.06775224 -1 4 C-0.67 2.68 -0.34 1.36 0 0 Z " fill="#76B8DC" transform="translate(115,133)"/>
</svg>
